{
  "asset": {
    "generator": "Marmoset Toolbag 3.04",
    "version": "2.0"
  },
  "buffers": [
    {
      "uri": "Simple Wheel Rig with Hydraulics_data.bin",
      "byteLength": 7813656
    }
  ],
  "bufferViews": [
    {
      "buffer": 0,
      "byteOffset": 0,
      "byteLength": 288
    },
    {
      "buffer": 0,
      "byteOffset": 288,
      "byteLength": 192
    },
    {
      "buffer": 0,
      "byteOffset": 480,
      "byteLength": 288
    },
    {
      "buffer": 0,
      "byteOffset": 768,
      "byteLength": 384
    },
    {
      "buffer": 0,
      "byteOffset": 1152,
      "byteLength": 72
    },
    {
      "buffer": 0,
      "byteOffset": 1224,
      "byteLength": 145944
    },
    {
      "buffer": 0,
      "byteOffset": 147168,
      "byteLength": 97296
    },
    {
      "buffer": 0,
      "byteOffset": 244464,
      "byteLength": 145944
    },
    {
      "buffer": 0,
      "byteOffset": 390408,
      "byteLength": 194592
    },
    {
      "buffer": 0,
      "byteOffset": 585000,
      "byteLength": 144384
    },
    {
      "buffer": 0,
      "byteOffset": 729384,
      "byteLength": 13080
    },
    {
      "buffer": 0,
      "byteOffset": 742464,
      "byteLength": 8720
    },
    {
      "buffer": 0,
      "byteOffset": 751184,
      "byteLength": 13080
    },
    {
      "buffer": 0,
      "byteOffset": 764264,
      "byteLength": 17440
    },
    {
      "buffer": 0,
      "byteOffset": 781704,
      "byteLength": 13056
    },
    {
      "buffer": 0,
      "byteOffset": 794760,
      "byteLength": 35448
    },
    {
      "buffer": 0,
      "byteOffset": 830208,
      "byteLength": 23632
    },
    {
      "buffer": 0,
      "byteOffset": 853840,
      "byteLength": 35448
    },
    {
      "buffer": 0,
      "byteOffset": 889288,
      "byteLength": 47264
    },
    {
      "buffer": 0,
      "byteOffset": 936552,
      "byteLength": 35424
    },
    {
      "buffer": 0,
      "byteOffset": 971976,
      "byteLength": 45696
    },
    {
      "buffer": 0,
      "byteOffset": 1017672,
      "byteLength": 30464
    },
    {
      "buffer": 0,
      "byteOffset": 1048136,
      "byteLength": 45696
    },
    {
      "buffer": 0,
      "byteOffset": 1093832,
      "byteLength": 60928
    },
    {
      "buffer": 0,
      "byteOffset": 1154760,
      "byteLength": 45696
    },
    {
      "buffer": 0,
      "byteOffset": 1200456,
      "byteLength": 346224
    },
    {
      "buffer": 0,
      "byteOffset": 1546680,
      "byteLength": 230816
    },
    {
      "buffer": 0,
      "byteOffset": 1777496,
      "byteLength": 346224
    },
    {
      "buffer": 0,
      "byteOffset": 2123720,
      "byteLength": 461632
    },
    {
      "buffer": 0,
      "byteOffset": 2585352,
      "byteLength": 336480
    },
    {
      "buffer": 0,
      "byteOffset": 2921832,
      "byteLength": 222768
    },
    {
      "buffer": 0,
      "byteOffset": 3144600,
      "byteLength": 148512
    },
    {
      "buffer": 0,
      "byteOffset": 3293112,
      "byteLength": 222768
    },
    {
      "buffer": 0,
      "byteOffset": 3515880,
      "byteLength": 297024
    },
    {
      "buffer": 0,
      "byteOffset": 3812904,
      "byteLength": 222720
    },
    {
      "buffer": 0,
      "byteOffset": 4035624,
      "byteLength": 41832
    },
    {
      "buffer": 0,
      "byteOffset": 4077456,
      "byteLength": 27888
    },
    {
      "buffer": 0,
      "byteOffset": 4105344,
      "byteLength": 41832
    },
    {
      "buffer": 0,
      "byteOffset": 4147176,
      "byteLength": 55776
    },
    {
      "buffer": 0,
      "byteOffset": 4202952,
      "byteLength": 41568
    },
    {
      "buffer": 0,
      "byteOffset": 4244520,
      "byteLength": 488556
    },
    {
      "buffer": 0,
      "byteOffset": 4733076,
      "byteLength": 325704
    },
    {
      "buffer": 0,
      "byteOffset": 5058780,
      "byteLength": 488556
    },
    {
      "buffer": 0,
      "byteOffset": 5547336,
      "byteLength": 651408
    },
    {
      "buffer": 0,
      "byteOffset": 6198744,
      "byteLength": 447552
    },
    {
      "buffer": 0,
      "byteOffset": 6646296,
      "byteLength": 92160
    },
    {
      "buffer": 0,
      "byteOffset": 6738456,
      "byteLength": 61440
    },
    {
      "buffer": 0,
      "byteOffset": 6799896,
      "byteLength": 92160
    },
    {
      "buffer": 0,
      "byteOffset": 6892056,
      "byteLength": 122880
    },
    {
      "buffer": 0,
      "byteOffset": 7014936,
      "byteLength": 86016
    },
    {
      "buffer": 0,
      "byteOffset": 7100952,
      "byteLength": 144384
    },
    {
      "buffer": 0,
      "byteOffset": 7245336,
      "byteLength": 96256
    },
    {
      "buffer": 0,
      "byteOffset": 7341592,
      "byteLength": 144384
    },
    {
      "buffer": 0,
      "byteOffset": 7485976,
      "byteLength": 192512
    },
    {
      "buffer": 0,
      "byteOffset": 7678488,
      "byteLength": 135168
    }
  ],
  "accessors": [
    {
      "bufferView": 0,
      "componentType": 5126,
      "count": 24,
      "type": "VEC3",
      "min": [
        -11.813929557800293,
        -7.900000095367432,
        -0.33971989154815674
      ],
      "max": [
        7.900000095367432,
        7.900000095367432,
        0
      ]
    },
    {
      "bufferView": 1,
      "componentType": 5126,
      "count": 24,
      "type": "VEC2"
    },
    {
      "bufferView": 2,
      "componentType": 5126,
      "count": 24,
      "type": "VEC3"
    },
    {
      "bufferView": 3,
      "componentType": 5126,
      "count": 24,
      "type": "VEC4"
    },
    {
      "bufferView": 4,
      "componentType": 5123,
      "count": 36,
      "type": "SCALAR"
    },
    {
      "bufferView": 5,
      "componentType": 5126,
      "count": 12162,
      "type": "VEC3",
      "min": [
        -0.20917478203773499,
        -1.1089560985565186,
        0.5640274286270142
      ],
      "max": [
        0.20917460322380066,
        1.1089560985565186,
        2.148007392883301
      ]
    },
    {
      "bufferView": 6,
      "componentType": 5126,
      "count": 12162,
      "type": "VEC2"
    },
    {
      "bufferView": 7,
      "componentType": 5126,
      "count": 12162,
      "type": "VEC3"
    },
    {
      "bufferView": 8,
      "componentType": 5126,
      "count": 12162,
      "type": "VEC4"
    },
    {
      "bufferView": 9,
      "componentType": 5123,
      "count": 72192,
      "type": "SCALAR"
    },
    {
      "bufferView": 10,
      "componentType": 5126,
      "count": 1090,
      "type": "VEC3",
      "min": [
        -2.715519905090332,
        -0.8070590496063232,
        0.5842410326004028
      ],
      "max": [
        -2.099137306213379,
        0.8070590496063232,
        0.9261443614959717
      ]
    },
    {
      "bufferView": 11,
      "componentType": 5126,
      "count": 1090,
      "type": "VEC2"
    },
    {
      "bufferView": 12,
      "componentType": 5126,
      "count": 1090,
      "type": "VEC3"
    },
    {
      "bufferView": 13,
      "componentType": 5126,
      "count": 1090,
      "type": "VEC4"
    },
    {
      "bufferView": 14,
      "componentType": 5123,
      "count": 6528,
      "type": "SCALAR"
    },
    {
      "bufferView": 15,
      "componentType": 5126,
      "count": 2954,
      "type": "VEC3",
      "min": [
        -2.4507815837860107,
        -0.6284785270690918,
        0.2113138735294342
      ],
      "max": [
        -1.193824291229248,
        0.6284785270690918,
        1.212050437927246
      ]
    },
    {
      "bufferView": 16,
      "componentType": 5126,
      "count": 2954,
      "type": "VEC2"
    },
    {
      "bufferView": 17,
      "componentType": 5126,
      "count": 2954,
      "type": "VEC3"
    },
    {
      "bufferView": 18,
      "componentType": 5126,
      "count": 2954,
      "type": "VEC4"
    },
    {
      "bufferView": 19,
      "componentType": 5123,
      "count": 17712,
      "type": "SCALAR"
    },
    {
      "bufferView": 20,
      "componentType": 5126,
      "count": 3808,
      "type": "VEC3",
      "min": [
        -1.5458301305770874,
        -0.6536715030670166,
        -0.5082931518554688
      ],
      "max": [
        0.4825765788555145,
        0.6536715030670166,
        0.9260849356651306
      ]
    },
    {
      "bufferView": 21,
      "componentType": 5126,
      "count": 3808,
      "type": "VEC2"
    },
    {
      "bufferView": 22,
      "componentType": 5126,
      "count": 3808,
      "type": "VEC3"
    },
    {
      "bufferView": 23,
      "componentType": 5126,
      "count": 3808,
      "type": "VEC4"
    },
    {
      "bufferView": 24,
      "componentType": 5123,
      "count": 22848,
      "type": "SCALAR"
    },
    {
      "bufferView": 25,
      "componentType": 5126,
      "count": 28852,
      "type": "VEC3",
      "min": [
        -0.2616075575351715,
        -0.6989827156066895,
        -0.26160746812820435
      ],
      "max": [
        2.156703233718872,
        0.6989827156066895,
        1.495810866355896
      ]
    },
    {
      "bufferView": 26,
      "componentType": 5126,
      "count": 28852,
      "type": "VEC2"
    },
    {
      "bufferView": 27,
      "componentType": 5126,
      "count": 28852,
      "type": "VEC3"
    },
    {
      "bufferView": 28,
      "componentType": 5126,
      "count": 28852,
      "type": "VEC4"
    },
    {
      "bufferView": 29,
      "componentType": 5123,
      "count": 154992,
      "type": "SCALAR"
    },
    {
      "bufferView": 29,
      "componentType": 5123,
      "count": 13248,
      "type": "SCALAR",
      "byteOffset": 309984
    },
    {
      "bufferView": 30,
      "componentType": 5126,
      "count": 18564,
      "type": "VEC3",
      "min": [
        -0.4849059581756592,
        -0.6531094312667847,
        -0.4849059283733368
      ],
      "max": [
        0.4849057197570801,
        0.5705053210258484,
        0.48490574955940247
      ]
    },
    {
      "bufferView": 31,
      "componentType": 5126,
      "count": 18564,
      "type": "VEC2"
    },
    {
      "bufferView": 32,
      "componentType": 5126,
      "count": 18564,
      "type": "VEC3"
    },
    {
      "bufferView": 33,
      "componentType": 5126,
      "count": 18564,
      "type": "VEC4"
    },
    {
      "bufferView": 34,
      "componentType": 5123,
      "count": 111360,
      "type": "SCALAR"
    },
    {
      "bufferView": 35,
      "componentType": 5126,
      "count": 3486,
      "type": "VEC3",
      "min": [
        -1.1136914491653442,
        -0.43700021505355835,
        -0.20935730636119843
      ],
      "max": [
        0.9212340712547302,
        0.43700021505355835,
        1.1084855794906616
      ]
    },
    {
      "bufferView": 36,
      "componentType": 5126,
      "count": 3486,
      "type": "VEC2"
    },
    {
      "bufferView": 37,
      "componentType": 5126,
      "count": 3486,
      "type": "VEC3"
    },
    {
      "bufferView": 38,
      "componentType": 5126,
      "count": 3486,
      "type": "VEC4"
    },
    {
      "bufferView": 39,
      "componentType": 5123,
      "count": 18432,
      "type": "SCALAR"
    },
    {
      "bufferView": 39,
      "componentType": 5123,
      "count": 2352,
      "type": "SCALAR",
      "byteOffset": 36864
    },
    {
      "bufferView": 40,
      "componentType": 5126,
      "count": 40713,
      "type": "VEC3",
      "min": [
        -1.1175062656402588,
        -0.3056902289390564,
        -1.1172285079956055
      ],
      "max": [
        1.1152397394180298,
        0.30569034814834595,
        1.1156359910964966
      ]
    },
    {
      "bufferView": 41,
      "componentType": 5126,
      "count": 40713,
      "type": "VEC2"
    },
    {
      "bufferView": 42,
      "componentType": 5126,
      "count": 40713,
      "type": "VEC3"
    },
    {
      "bufferView": 43,
      "componentType": 5126,
      "count": 40713,
      "type": "VEC4"
    },
    {
      "bufferView": 44,
      "componentType": 5123,
      "count": 31824,
      "type": "SCALAR"
    },
    {
      "bufferView": 44,
      "componentType": 5123,
      "count": 191952,
      "type": "SCALAR",
      "byteOffset": 63648
    },
    {
      "bufferView": 45,
      "componentType": 5126,
      "count": 7680,
      "type": "VEC3",
      "min": [
        -0.1183302104473114,
        -1.0178453922271729,
        0.36654871702194214
      ],
      "max": [
        0.11841598898172379,
        1.017844319343567,
        1.4797111749649048
      ]
    },
    {
      "bufferView": 46,
      "componentType": 5126,
      "count": 7680,
      "type": "VEC2"
    },
    {
      "bufferView": 47,
      "componentType": 5126,
      "count": 7680,
      "type": "VEC3"
    },
    {
      "bufferView": 48,
      "componentType": 5126,
      "count": 7680,
      "type": "VEC4"
    },
    {
      "bufferView": 49,
      "componentType": 5123,
      "count": 43008,
      "type": "SCALAR"
    },
    {
      "bufferView": 50,
      "componentType": 5126,
      "count": 12032,
      "type": "VEC3",
      "min": [
        -0.15079258382320404,
        -1.0505763292312622,
        -0.15079323947429657
      ],
      "max": [
        0.15079481899738312,
        1.0505708456039429,
        1.2167426347732544
      ]
    },
    {
      "bufferView": 51,
      "componentType": 5126,
      "count": 12032,
      "type": "VEC2"
    },
    {
      "bufferView": 52,
      "componentType": 5126,
      "count": 12032,
      "type": "VEC3"
    },
    {
      "bufferView": 53,
      "componentType": 5126,
      "count": 12032,
      "type": "VEC4"
    },
    {
      "bufferView": 54,
      "componentType": 5123,
      "count": 43008,
      "type": "SCALAR"
    },
    {
      "bufferView": 54,
      "componentType": 5123,
      "count": 24576,
      "type": "SCALAR",
      "byteOffset": 86016
    }
  ],
  "meshes": [
    {
      "primitives": [
        {
          "attributes": {
            "TEXCOORD_0": 1,
            "NORMAL": 2,
            "TANGENT": 3,
            "POSITION": 0
          },
          "indices": 4,
          "material": 0
        }
      ],
      "name": "Plane.001"
    },
    {
      "primitives": [
        {
          "attributes": {
            "TEXCOORD_0": 6,
            "NORMAL": 7,
            "TANGENT": 8,
            "POSITION": 5
          },
          "indices": 9,
          "material": 1
        }
      ],
      "name": "Circle.006"
    },
    {
      "primitives": [
        {
          "attributes": {
            "TEXCOORD_0": 11,
            "NORMAL": 12,
            "TANGENT": 13,
            "POSITION": 10
          },
          "indices": 14,
          "material": 1
        }
      ],
      "name": "Circle.009"
    },
    {
      "primitives": [
        {
          "attributes": {
            "TEXCOORD_0": 16,
            "NORMAL": 17,
            "TANGENT": 18,
            "POSITION": 15
          },
          "indices": 19,
          "material": 1
        }
      ],
      "name": "Circle"
    },
    {
      "primitives": [
        {
          "attributes": {
            "TEXCOORD_0": 21,
            "NORMAL": 22,
            "TANGENT": 23,
            "POSITION": 20
          },
          "indices": 24,
          "material": 1
        }
      ],
      "name": "Circle.008"
    },
    {
      "primitives": [
        {
          "attributes": {
            "TEXCOORD_0": 26,
            "NORMAL": 27,
            "TANGENT": 28,
            "POSITION": 25
          },
          "indices": 29,
          "material": 1
        },
        {
          "attributes": {
            "TEXCOORD_0": 26,
            "NORMAL": 27,
            "TANGENT": 28,
            "POSITION": 25
          },
          "indices": 30,
          "material": 2
        }
      ],
      "name": "Circle.004"
    },
    {
      "primitives": [
        {
          "attributes": {
            "TEXCOORD_0": 32,
            "NORMAL": 33,
            "TANGENT": 34,
            "POSITION": 31
          },
          "indices": 35,
          "material": 1
        }
      ],
      "name": "Circle.001"
    },
    {
      "primitives": [
        {
          "attributes": {
            "TEXCOORD_0": 37,
            "NORMAL": 38,
            "TANGENT": 39,
            "POSITION": 36
          },
          "indices": 40,
          "material": 1
        },
        {
          "attributes": {
            "TEXCOORD_0": 37,
            "NORMAL": 38,
            "TANGENT": 39,
            "POSITION": 36
          },
          "indices": 41,
          "material": 2
        }
      ],
      "name": "Circle.002"
    },
    {
      "primitives": [
        {
          "attributes": {
            "TEXCOORD_0": 43,
            "NORMAL": 44,
            "TANGENT": 45,
            "POSITION": 42
          },
          "indices": 46,
          "material": 1
        },
        {
          "attributes": {
            "TEXCOORD_0": 43,
            "NORMAL": 44,
            "TANGENT": 45,
            "POSITION": 42
          },
          "indices": 47,
          "material": 3
        }
      ],
      "name": "Plane"
    },
    {
      "primitives": [
        {
          "attributes": {
            "TEXCOORD_0": 49,
            "NORMAL": 50,
            "TANGENT": 51,
            "POSITION": 48
          },
          "indices": 52,
          "material": 2
        }
      ],
      "name": "Circle.007"
    },
    {
      "primitives": [
        {
          "attributes": {
            "TEXCOORD_0": 54,
            "NORMAL": 55,
            "TANGENT": 56,
            "POSITION": 53
          },
          "indices": 57,
          "material": 1
        },
        {
          "attributes": {
            "TEXCOORD_0": 54,
            "NORMAL": 55,
            "TANGENT": 56,
            "POSITION": 53
          },
          "indices": 58,
          "material": 2
        }
      ],
      "name": "Circle.005"
    }
  ],
  "materials": [
    {
      "name": "Default",
      "pbrMetallicRoughness": {
        "baseColorFactor": [
          1,
          1,
          1,
          1
        ],
        "metallicFactor": 0,
        "roughnessFactor": 0.4900990128517151
      },
      "emissiveFactor": [
        0,
        0,
        0
      ],
      "doubleSided": false
    },
    {
      "name": "ma",
      "pbrMetallicRoughness": {
        "baseColorFactor": [
          0.800000011920929,
          0.800000011920929,
          0.800000011920929,
          1
        ],
        "metallicFactor": 0,
        "roughnessFactor": 0
      },
      "emissiveFactor": [
        0,
        0,
        0
      ],
      "alphaMode": "BLEND",
      "doubleSided": false
    },
    {
      "name": "ma2",
      "pbrMetallicRoughness": {
        "baseColorFactor": [
          0.800000011920929,
          0.800000011920929,
          0.800000011920929,
          1
        ],
        "metallicFactor": 0,
        "roughnessFactor": 0.9519609808921814
      },
      "emissiveFactor": [
        0,
        0,
        0
      ],
      "alphaMode": "BLEND",
      "doubleSided": false
    },
    {
      "name": "rubber",
      "pbrMetallicRoughness": {
        "baseColorFactor": [
          0.08414000272750854,
          0.08414000272750854,
          0.08414000272750854,
          1
        ],
        "metallicFactor": 0,
        "roughnessFactor": 0.8267326951026917
      },
      "emissiveFactor": [
        0,
        0,
        0
      ],
      "alphaMode": "BLEND",
      "doubleSided": false
    }
  ],
  "nodes": [
    {
      "mesh": 0,
      "name": "Plane.001",
      "matrix": [
        100,
        0,
        0,
        0,
        0,
        -0.000016292067812173627,
        -100,
        0,
        0,
        100,
        -0.000016292067812173627,
        0,
        0,
        0,
        0,
        1
      ]
    },
    {
      "mesh": 1,
      "name": "Circle.006",
      "matrix": [
        100.00001525878906,
        0.000008742275895201601,
        0.00003149942494928837,
        0,
        0.00003149942131130956,
        0.000010339540494896937,
        -100,
        0,
        -0.000008742275895201601,
        99.99996948242188,
        0.000010339534128434025,
        0,
        -1.1795037984848022,
        109.74061584472656,
        -0.00007572319736937061,
        1
      ]
    },
    {
      "mesh": 2,
      "name": "Circle.009",
      "matrix": [
        100.00003814697266,
        0.00002728949584707152,
        -0.00015807429736014456,
        0,
        -0.00015807422460056841,
        -0.00017120990378316492,
        -100.00001525878906,
        0,
        -0.00002728976141952444,
        100.0000228881836,
        -0.00017120987467933446,
        0,
        181.0690460205078,
        223.90744018554688,
        -0.00018735275079961866,
        1
      ]
    },
    {
      "mesh": 3,
      "name": "Circle",
      "matrix": [
        100.00003814697266,
        0.00002728949584707152,
        -0.00015807429736014456,
        0,
        -0.00015807422460056841,
        -0.00017120990378316492,
        -100.00001525878906,
        0,
        -0.00002728976141952444,
        100.0000228881836,
        -0.00017120987467933446,
        0,
        181.0690460205078,
        223.90744018554688,
        -0.00018735275079961866,
        1
      ]
    },
    {
      "mesh": 4,
      "name": "Circle.008",
      "matrix": [
        100.00003814697266,
        0.00002728949584707152,
        -0.00015807429736014456,
        0,
        -0.00015807422460056841,
        -0.00017120990378316492,
        -100.00001525878906,
        0,
        -0.00002728976141952444,
        100.0000228881836,
        -0.00017120987467933446,
        0,
        181.0690460205078,
        223.90744018554688,
        -0.00018735275079961866,
        1
      ]
    },
    {
      "mesh": 5,
      "name": "Circle.004",
      "matrix": [
        99.99998474121094,
        0.00003502231265883893,
        -0.00017859363288152963,
        0,
        -0.00017859364743344486,
        -0.00018583203200250864,
        -100.0000228881836,
        0,
        -0.00003502264371491037,
        99.99998474121094,
        -0.00018583190103527158,
        0,
        -1.1793280839920044,
        109.74054718017578,
        0.0002799366193357855,
        1
      ]
    },
    {
      "mesh": 6,
      "name": "Circle.001",
      "matrix": [
        99.9997787475586,
        0.00007065477984724566,
        -0.0002824121911544353,
        0,
        -0.0002824127150233835,
        -0.0002753369335550815,
        -100.0000228881836,
        0,
        -0.0000706557766534388,
        100.00008392333984,
        -0.00027533690445125103,
        0,
        -1.179273247718811,
        109.74048614501953,
        0.0002799366193357855,
        1
      ]
    },
    {
      "mesh": 7,
      "name": "Circle.002",
      "matrix": [
        73.52731323242188,
        -80.48149108886719,
        -0.00011562673898879439,
        0,
        -0.00028136259061284363,
        -0.0001091218800866045,
        -102.9653091430664,
        0,
        80.48160552978516,
        73.52742004394531,
        -0.0002978475240524858,
        0,
        -1.1793723106384277,
        109.74063873291016,
        0.00025609470321796834,
        1
      ]
    },
    {
      "mesh": 8,
      "name": "Plane",
      "matrix": [
        99.65180206298828,
        -8.335031509399414,
        -0.0002162335003959015,
        0,
        -0.00022534866002388299,
        -0.00009994486026698723,
        -100.0000228881836,
        0,
        8.335061073303223,
        99.65216064453125,
        -0.00011838012869702652,
        0,
        -1.0596626996994019,
        109.81053161621094,
        0.0002559242129791528,
        1
      ]
    },
    {
      "mesh": 9,
      "name": "Circle.007",
      "matrix": [
        99.99999237060547,
        0.0000027406479148339713,
        0.000006392596787918592,
        0,
        0.00000639259587842389,
        0.000055233507737284526,
        -100,
        0,
        -0.0000027406515528127784,
        100,
        0.00005523350409930572,
        0,
        -1.1794567108154297,
        109.74047088623047,
        -0.00002384185791015625,
        1
      ]
    },
    {
      "mesh": 10,
      "name": "Circle.005",
      "matrix": [
        99.99999237060547,
        0.0000027406479148339713,
        0.000006392596787918592,
        0,
        0.00000639259587842389,
        0.000055233507737284526,
        -100,
        0,
        -0.0000027406515528127784,
        100,
        0.00005523350409930572,
        0,
        -1.1794567108154297,
        109.74047088623047,
        -0.00002384185791015625,
        1
      ]
    }
  ],
  "scene": 0,
  "scenes": [
    {
      "nodes": [
        0,
        1,
        2,
        3,
        4,
        5,
        6,
        7,
        8,
        9,
        10
      ]
    }
  ]
}